<?xml version="1.0" encoding="UTF-8" standalone="no"?><!DOCTYPE svg PUBLIC "-//W3C//DTD SVG 1.1//EN" "http://www.w3.org/Graphics/SVG/1.1/DTD/svg11.dtd"><svg width="100%" height="100%" viewBox="0 0 7 7" version="1.1" xmlns="http://www.w3.org/2000/svg" xmlns:xlink="http://www.w3.org/1999/xlink" xml:space="preserve" xmlns:serif="http://www.serif.com/" style="fill-rule:evenodd;clip-rule:evenodd;stroke-linecap:round;stroke-linejoin:round;stroke-miterlimit:1.5;"><rect id="Artboard1" x="0" y="0" width="6.72" height="6.72" style="fill:none;"/><g id="Artboard11" serif:id="Artboard1"><path d="M1.004,2.542l1.505,-0" style="fill:none;stroke:#d7dae0;stroke-width:0.2px;"/><path d="M3.943,0.993c-0,-0 0.488,-0.022 0.489,0.336c0.001,0.265 -0.368,0.322 -0.368,0.322l0.01,3.409c0,-0 0.093,0.717 -0.707,0.72c-0.672,0.002 -0.71,-0.684 -0.71,-0.684l-0.016,-3.429c-0,-0 -0.345,-0.057 -0.337,-0.363c0.006,-0.271 0.48,-0.311 0.48,-0.311l1.159,-0Z" style="fill:none;stroke:#d7dae0;stroke-width:0.24px;"/><path d="M3.348,0.177c-0.19,0 -0.564,0.027 -0.564,0.171c0,0.127 -0,0.645 -0,0.645l1.165,-0c0,-0 0.003,-0.522 0,-0.645c-0.003,-0.146 -0.407,-0.171 -0.601,-0.171Z" style="fill:none;stroke:#d7dae0;stroke-width:0.24px;"/><path d="M4.055,0.802l1.403,-0.002c0,-0 0.274,-0.004 0.32,0.103c0.05,0.116 0.036,0.47 0.04,0.607c0.022,0.725 -0.021,4.035 -0.021,4.035c0,-0 0.008,0.164 -0.038,0.311c-0.031,0.094 -0.289,0.047 -0.289,0.047c-0,0 -0.698,-0.073 -1.038,-0.01c-0.342,0.063 -0.819,0.379 -1.013,0.388c-0.194,0.01 -0.686,-0.324 -0.951,-0.388c-0.207,-0.051 -0.639,-0 -0.639,-0c-0,-0 -0.209,0.007 -0.818,-0.004c-0.165,-0.003 -0.138,-0.378 -0.138,-0.378l0.036,-4.193c-0,-0 -0.009,-0.381 0.047,-0.447c0.043,-0.05 0.283,-0.051 0.283,-0.051l1.509,-0.006" style="fill:none;stroke:#d7dae0;stroke-width:0.24px;"/><path d="M3.042,2.174l0.639,-0.003" style="fill:none;stroke:#d7dae0;stroke-width:0.24px;"/><path d="M3.042,3.251l0.639,-0" style="fill:none;stroke:#d7dae0;stroke-width:0.24px;"/><ellipse cx="3.347" cy="3.775" rx="0.167" ry="0.162" style="fill:#d7dae0;"/><ellipse cx="3.362" cy="5.018" rx="0.319" ry="0.294" style="fill:#d7dae0;"/><ellipse cx="3.329" cy="4.331" rx="0.149" ry="0.156" style="fill:#d7dae0;"/><ellipse cx="3.347" cy="2.713" rx="0.18" ry="0.172" style="fill:#d7dae0;"/><ellipse cx="1.594" cy="1.653" rx="0.18" ry="0.172" style="fill:#d7dae0;"/><ellipse cx="2.026" cy="4.441" rx="0.18" ry="0.172" style="fill:#d7dae0;"/><ellipse cx="4.62" cy="4.784" rx="0.18" ry="0.172" style="fill:#d7dae0;"/><ellipse cx="4.62" cy="4.784" rx="0.18" ry="0.172" style="fill:#d7dae0;"/><ellipse cx="5.117" cy="1.653" rx="0.18" ry="0.172" style="fill:#d7dae0;"/><ellipse cx="4.64" cy="2.079" rx="0.141" ry="0.138" style="fill:#d7dae0;"/><ellipse cx="2.06" cy="2.079" rx="0.141" ry="0.138" style="fill:#d7dae0;"/><ellipse cx="1.489" cy="5.288" rx="0.178" ry="0.177" style="fill:#d7dae0;"/><ellipse cx="5.243" cy="5.288" rx="0.178" ry="0.177" style="fill:#d7dae0;"/><path d="M1.233,3.607l0.256,0.255l0.64,-0.627l-0.116,-0.135l-0.416,0.45l-0.177,-0.161l-0.187,0.218Z" style="fill:#d7dae0;stroke:#d7dae0;stroke-width:0.2px;"/><path d="M4.743,3.655l0.477,-0.455l-0.205,0.196l0.228,0.226l-0.228,-0.226l-0.224,-0.196" style="fill:none;stroke:#d7dae0;stroke-width:0.2px;"/><path d="M4.183,2.542l1.557,-0" style="fill:none;stroke:#d7dae0;stroke-width:0.2px;"/></g></svg>